<svg width="58" height="58" viewBox="0 0 58 58" fill="none" xmlns="http://www.w3.org/2000/svg">
<g filter="url(#filter0_dd_11_132)">
<rect x="5" y="1" width="48" height="48" rx="8" fill="url(#paint0_linear_11_132)"/>
</g>
<path d="M28.125 29.1173H28.0549C27.7088 29.1173 27.3769 28.9798 27.1322 28.7351C26.8875 28.4904 26.75 28.1585 26.75 27.8124C26.75 27.4477 26.6051 27.098 26.3473 26.8401C26.0894 26.5822 25.7397 26.4374 25.375 26.4374C25.0103 26.4374 24.6606 26.5822 24.4027 26.8401C24.1449 27.098 24 27.4477 24 27.8124C24 28.8878 24.4272 29.9192 25.1876 30.6796C25.9481 31.44 26.9795 31.8673 28.0549 31.8673H28.125V33.2423C28.125 33.6069 28.2699 33.9567 28.5277 34.2145C28.7856 34.4724 29.1353 34.6173 29.5 34.6173C29.8647 34.6173 30.2144 34.4724 30.4723 34.2145C30.7301 33.9567 30.875 33.6069 30.875 33.2423V31.8673C31.969 31.8673 33.0182 31.4327 33.7918 30.6591C34.5654 29.8855 35 28.8363 35 27.7423C35 26.6482 34.5654 25.599 33.7918 24.8254C33.0182 24.0518 31.969 23.6173 30.875 23.6173V20.8673H30.9053C31.6478 20.8673 32.25 21.4695 32.25 22.212C32.25 22.5767 32.3949 22.9264 32.6527 23.1843C32.9106 23.4421 33.2603 23.587 33.625 23.587C33.9897 23.587 34.3394 23.4421 34.5973 23.1843C34.8551 22.9264 35 22.5767 35 22.212C35 21.126 34.5686 20.0845 33.8007 19.3166C33.0328 18.5487 31.9912 18.1173 30.9053 18.1173H30.875V16.7422C30.875 16.3776 30.7301 16.0278 30.4723 15.77C30.2144 15.5121 29.8647 15.3673 29.5 15.3673C29.1353 15.3673 28.7856 15.5121 28.5277 15.77C28.2699 16.0278 28.125 16.3776 28.125 16.7422V18.1173C27.5833 18.1173 27.0469 18.2239 26.5464 18.4312C26.046 18.6385 25.5912 18.9424 25.2082 19.3254C24.8251 19.7085 24.5213 20.1632 24.314 20.6637C24.1067 21.1641 24 21.7005 24 22.2423C24 22.784 24.1067 23.3204 24.314 23.8208C24.5213 24.3213 24.8251 24.776 25.2082 25.1591C25.5912 25.5421 26.046 25.846 26.5464 26.0533C27.0469 26.2606 27.5833 26.3673 28.125 26.3673V29.1173ZM30.875 29.1173V26.3673C31.2397 26.3673 31.5894 26.5121 31.8473 26.77C32.1051 27.0278 32.25 27.3776 32.25 27.7423C32.25 28.1069 32.1051 28.4567 31.8473 28.7145C31.5894 28.9724 31.2397 29.1173 30.875 29.1173ZM28.125 20.8673V23.6173C27.7603 23.6173 27.4106 23.4724 27.1527 23.2145C26.8949 22.9567 26.75 22.6069 26.75 22.2423C26.75 21.8776 26.8949 21.5278 27.1527 21.27C27.4106 21.0121 27.7603 20.8673 28.125 20.8673ZM29.5 38.7423C21.9059 38.7423 15.75 32.5864 15.75 24.9923C15.75 17.3981 21.9059 11.2423 29.5 11.2423C37.0941 11.2423 43.25 17.3981 43.25 24.9923C43.25 32.5864 37.0941 38.7423 29.5 38.7423Z" fill="white"/>
<defs>
<filter id="filter0_dd_11_132" x="0" y="0" width="58" height="58" filterUnits="userSpaceOnUse" color-interpolation-filters="sRGB">
<feFlood flood-opacity="0" result="BackgroundImageFix"/>
<feColorMatrix in="SourceAlpha" type="matrix" values="0 0 0 0 0 0 0 0 0 0 0 0 0 0 0 0 0 0 127 0" result="hardAlpha"/>
<feMorphology radius="1" operator="erode" in="SourceAlpha" result="effect1_dropShadow_11_132"/>
<feOffset dy="2"/>
<feGaussianBlur stdDeviation="2"/>
<feColorMatrix type="matrix" values="0 0 0 0 0 0 0 0 0 0 0 0 0 0 0 0 0 0 0.07 0"/>
<feBlend mode="normal" in2="BackgroundImageFix" result="effect1_dropShadow_11_132"/>
<feColorMatrix in="SourceAlpha" type="matrix" values="0 0 0 0 0 0 0 0 0 0 0 0 0 0 0 0 0 0 127 0" result="hardAlpha"/>
<feMorphology radius="1" operator="erode" in="SourceAlpha" result="effect2_dropShadow_11_132"/>
<feOffset dy="4"/>
<feGaussianBlur stdDeviation="3"/>
<feColorMatrix type="matrix" values="0 0 0 0 0 0 0 0 0 0 0 0 0 0 0 0 0 0 0.12 0"/>
<feBlend mode="normal" in2="effect1_dropShadow_11_132" result="effect2_dropShadow_11_132"/>
<feBlend mode="normal" in="SourceGraphic" in2="effect2_dropShadow_11_132" result="shape"/>
</filter>
<linearGradient id="paint0_linear_11_132" x1="2" y1="-3.5" x2="49" y2="55" gradientUnits="userSpaceOnUse">
<stop stop-color="#20BF55"/>
<stop offset="1" stop-color="#01BAEF"/>
</linearGradient>
</defs>
</svg>
