<svg width="26" height="30" viewBox="0 0 26 30" fill="none" xmlns="http://www.w3.org/2000/svg">
<g filter="url(#filter0_dd_15_369)">
<rect width="21" height="21" rx="4" fill="url(#paint0_linear_15_369)"/>
</g>
<path opacity="0.596982" d="M10 9.4511L8.08993 7.49599L8.68562 6.88626L6.84281 5L5 6.88626L6.84281 8.77252L7.4385 8.16278L9.23339 10L10 9.4511Z" fill="white"/>
<path opacity="0.596982" d="M14.6024 12C14.456 12.0179 14.3077 12.0298 14.1571 12.0298C14.0126 12.0298 13.869 12.0209 13.725 12.0035L12 14.2396L14.1405 16.4852C14.7947 17.1716 15.855 17.1716 16.5093 16.4852C17.1636 15.7988 17.1636 14.6864 16.5093 14L14.6024 12Z" fill="white"/>
<path d="M15.1355 8.3855L13.6145 6.8645L15.2185 5.2605C14.846 5.0945 14.4345 5 14 5C12.343 5 11 6.343 11 8C11 8.297 11.0445 8.583 11.125 8.854L5.73053 13.219C5.28503 13.6125 5.01903 14.1785 5.00103 14.772C4.98253 15.366 5.21303 15.9475 5.63303 16.367C6.04103 16.7755 6.58353 17 7.16053 17C7.78003 17 8.37102 16.734 8.78102 16.2695L13.146 10.875C13.417 10.9555 13.703 11 14 11C15.657 11 17 9.657 17 8C17 7.5655 16.9055 7.154 16.7395 6.781L15.1355 8.3855Z" fill="white"/>
<defs>
<filter id="filter0_dd_15_369" x="-5" y="-1" width="31" height="31" filterUnits="userSpaceOnUse" color-interpolation-filters="sRGB">
<feFlood flood-opacity="0" result="BackgroundImageFix"/>
<feColorMatrix in="SourceAlpha" type="matrix" values="0 0 0 0 0 0 0 0 0 0 0 0 0 0 0 0 0 0 127 0" result="hardAlpha"/>
<feMorphology radius="1" operator="erode" in="SourceAlpha" result="effect1_dropShadow_15_369"/>
<feOffset dy="4"/>
<feGaussianBlur stdDeviation="3"/>
<feColorMatrix type="matrix" values="0 0 0 0 0 0 0 0 0 0 0 0 0 0 0 0 0 0 0.12 0"/>
<feBlend mode="normal" in2="BackgroundImageFix" result="effect1_dropShadow_15_369"/>
<feColorMatrix in="SourceAlpha" type="matrix" values="0 0 0 0 0 0 0 0 0 0 0 0 0 0 0 0 0 0 127 0" result="hardAlpha"/>
<feMorphology radius="1" operator="erode" in="SourceAlpha" result="effect2_dropShadow_15_369"/>
<feOffset dy="2"/>
<feGaussianBlur stdDeviation="2"/>
<feColorMatrix type="matrix" values="0 0 0 0 0 0 0 0 0 0 0 0 0 0 0 0 0 0 0.07 0"/>
<feBlend mode="normal" in2="effect1_dropShadow_15_369" result="effect2_dropShadow_15_369"/>
<feBlend mode="normal" in="SourceGraphic" in2="effect2_dropShadow_15_369" result="shape"/>
</filter>
<linearGradient id="paint0_linear_15_369" x1="-10.5" y1="10.5" x2="10.5" y2="31.5" gradientUnits="userSpaceOnUse">
<stop stop-color="#FF667C"/>
<stop offset="1" stop-color="#EA0606"/>
</linearGradient>
</defs>
</svg>
