<svg width="26" height="30" viewBox="0 0 26 30" fill="none" xmlns="http://www.w3.org/2000/svg">
<g filter="url(#filter0_dd_15_355)">
<rect width="21" height="21" rx="4" fill="url(#paint0_linear_15_355)"/>
</g>
<path opacity="0.593634" d="M17 8V6.00017C17 5.44757 16.5152 5 15.9167 5H5.08333C4.48479 5 4 5.44757 4 6.00017V8H17Z" fill="white"/>
<path fill-rule="evenodd" clip-rule="evenodd" d="M4 10V14.9091C4 15.5118 4.48479 16 5.08333 16H15.9167C16.5152 16 17 15.5118 17 14.9091V10H4ZM9.95833 13.2727H6.16667V12.1818H9.95833V13.2727ZM12.6667 13.2727H14.8333V12.1818H12.6667V13.2727Z" fill="white"/>
<defs>
<filter id="filter0_dd_15_355" x="-5" y="-1" width="31" height="31" filterUnits="userSpaceOnUse" color-interpolation-filters="sRGB">
<feFlood flood-opacity="0" result="BackgroundImageFix"/>
<feColorMatrix in="SourceAlpha" type="matrix" values="0 0 0 0 0 0 0 0 0 0 0 0 0 0 0 0 0 0 127 0" result="hardAlpha"/>
<feMorphology radius="1" operator="erode" in="SourceAlpha" result="effect1_dropShadow_15_355"/>
<feOffset dy="4"/>
<feGaussianBlur stdDeviation="3"/>
<feColorMatrix type="matrix" values="0 0 0 0 0 0 0 0 0 0 0 0 0 0 0 0 0 0 0.12 0"/>
<feBlend mode="normal" in2="BackgroundImageFix" result="effect1_dropShadow_15_355"/>
<feColorMatrix in="SourceAlpha" type="matrix" values="0 0 0 0 0 0 0 0 0 0 0 0 0 0 0 0 0 0 127 0" result="hardAlpha"/>
<feMorphology radius="1" operator="erode" in="SourceAlpha" result="effect2_dropShadow_15_355"/>
<feOffset dy="2"/>
<feGaussianBlur stdDeviation="2"/>
<feColorMatrix type="matrix" values="0 0 0 0 0 0 0 0 0 0 0 0 0 0 0 0 0 0 0.07 0"/>
<feBlend mode="normal" in2="effect1_dropShadow_15_355" result="effect2_dropShadow_15_355"/>
<feBlend mode="normal" in="SourceGraphic" in2="effect2_dropShadow_15_355" result="shape"/>
</filter>
<linearGradient id="paint0_linear_15_355" x1="-10.5" y1="10.5" x2="10.5" y2="31.5" gradientUnits="userSpaceOnUse">
<stop stop-color="#FBCF33"/>
<stop offset="1" stop-color="#F53939"/>
</linearGradient>
</defs>
</svg>
